<svg xmlns="http://www.w3.org/2000/svg" style="display: none;">
  <!-- Home icon -->
  <symbol id="icon-home" viewBox="0 0 32 32" fill="currentColor">
    <path d="M27.7731 10.68L19.0398 3.69332C17.3331 2.33332 14.6665 2.31998 12.9731 3.67998L4.23979 10.68C2.98645 11.68 2.22645 13.68 2.49312 15.2533L4.17312 25.3067C4.55979 27.56 6.65312 29.3333 8.93312 29.3333H23.0665C25.3198 29.3333 27.4531 27.52 27.8398 25.2933L29.5198 15.24C29.7598 13.68 28.9998 11.68 27.7731 10.68ZM16.9998 24C16.9998 24.5467 16.5465 25 15.9998 25C15.4531 25 14.9998 24.5467 14.9998 24V20C14.9998 19.4533 15.4531 19 15.9998 19C16.5465 19 16.9998 19.4533 16.9998 20V24Z"/>
  </symbol>
  
  <!-- Carrer icon -->
  <symbol id="icon-carrer" viewBox="0 0 32 32" fill="currentColor">
    <path d="M21.5865 2.66663H10.4132C5.55984 2.66663 2.6665 5.55996 2.6665 10.4133V21.5733C2.6665 26.44 5.55984 29.3333 10.4132 29.3333H21.5732C26.4265 29.3333 29.3198 26.44 29.3198 21.5866V10.4133C29.3332 5.55996 26.4398 2.66663 21.5865 2.66663ZM25.7998 11.7866C25.7465 11.9066 25.6798 12.0133 25.5865 12.1066L23.1865 14.5066C22.9865 14.7066 22.7332 14.8 22.4798 14.8C22.2265 14.8 21.9732 14.7066 21.7732 14.5066C21.3865 14.12 21.3865 13.48 21.7732 13.0933L22.4665 12.4H22.2665C19.4665 12.4 17.1732 14.68 17.1732 17.48V20.0933V22.9866C17.1732 23.5333 16.7198 23.9866 16.1732 23.9866C15.6265 23.9866 15.1732 23.5333 15.1732 22.9866V20.0933V17.48C15.1732 14.68 12.8932 12.4 10.0932 12.4H9.53317L10.2265 13.0933C10.6132 13.48 10.6132 14.12 10.2265 14.5066C10.0265 14.7066 9.77317 14.8 9.51984 14.8C9.2665 14.8 9.01317 14.7066 8.81317 14.5066L6.41317 12.1066C6.0265 11.72 6.0265 11.08 6.41317 10.6933L8.81317 8.29329C9.19984 7.90663 9.83984 7.90663 10.2265 8.29329C10.6132 8.67996 10.6132 9.31996 10.2265 9.70663L9.53317 10.4H10.1065C12.7065 10.4 14.9598 11.8266 16.1865 13.92C17.4132 11.8266 19.6665 10.4 22.2798 10.4H22.4798L21.7865 9.70663C21.3998 9.31996 21.3998 8.67996 21.7865 8.29329C22.1732 7.90663 22.8132 7.90663 23.1998 8.29329L25.5998 10.6933C25.6932 10.7866 25.7598 10.8933 25.8132 11.0133C25.9065 11.2666 25.9065 11.5466 25.7998 11.7866Z"/>
  </symbol>
  
  <!-- Education icon -->
  <symbol id="icon-education" viewBox="0 0 32 32" fill="currentColor">
    <path d="M22.4403 20.8534C23.3337 20.2668 24.507 20.9067 24.507 21.9734V23.6934C24.507 25.3868 23.187 27.2001 21.6003 27.7334L17.347 29.1468C16.6003 29.4001 15.387 29.4001 14.6537 29.1468L10.4003 27.7334C8.80032 27.2001 7.49365 25.3868 7.49365 23.6934V21.9601C7.49365 20.9067 8.66699 20.2668 9.54699 20.8401L12.2937 22.6267C13.347 23.3334 14.6803 23.6801 16.0137 23.6801C17.347 23.6801 18.6803 23.3334 19.7337 22.6267L22.4403 20.8534Z"/>
    <path d="M26.64 8.61345L18.6534 3.37345C17.2134 2.42679 14.84 2.42679 13.4 3.37345L5.37336 8.61345C2.80003 10.2801 2.80003 14.0535 5.37336 15.7335L7.50669 17.1201L13.4 20.9601C14.84 21.9068 17.2134 21.9068 18.6534 20.9601L24.5067 17.1201L26.3334 15.9201V20.0001C26.3334 20.5468 26.7867 21.0001 27.3334 21.0001C27.88 21.0001 28.3334 20.5468 28.3334 20.0001V13.4401C28.8667 11.7201 28.32 9.72012 26.64 8.61345Z"/>
  </symbol>
  
  <!-- Teams icon -->
  <symbol id="icon-teams" viewBox="0 0 32 32" fill="currentColor">
    <path d="M23.3734 10.36C23.2801 10.3466 23.1867 10.3466 23.0934 10.36C21.0267 10.2933 19.3867 8.59996 19.3867 6.51996C19.3867 4.39996 21.1067 2.66663 23.2401 2.66663C25.3601 2.66663 27.0934 4.38663 27.0934 6.51996C27.0801 8.59996 25.4401 10.2933 23.3734 10.36Z"/>
    <path d="M27.72 19.6C26.2266 20.6 24.1333 20.9734 22.2 20.72C22.7066 19.6267 22.9733 18.4134 22.9866 17.1334C22.9866 15.8001 22.6933 14.5334 22.1333 13.4267C24.1066 13.16 26.2 13.5334 27.7066 14.5334C29.8133 15.92 29.8133 18.2 27.72 19.6Z"/>
    <path d="M8.58704 10.36C8.68037 10.3466 8.7737 10.3466 8.86704 10.36C10.9337 10.2933 12.5737 8.59996 12.5737 6.51996C12.5737 4.38663 10.8537 2.66663 8.72037 2.66663C6.60037 2.66663 4.88037 4.38663 4.88037 6.51996C4.88037 8.59996 6.52037 10.2933 8.58704 10.36Z"/>
    <path d="M8.73349 17.1333C8.73349 18.4266 9.01349 19.6533 9.52016 20.7599C7.64016 20.9599 5.68016 20.5599 4.24016 19.6133C2.13349 18.2133 2.13349 15.9333 4.24016 14.5333C5.66682 13.5733 7.68016 13.1866 9.57349 13.3999C9.02682 14.5199 8.73349 15.7866 8.73349 17.1333Z"/>
    <path d="M16.1599 21.16C16.0532 21.1467 15.9332 21.1467 15.8132 21.16C13.3599 21.08 11.3999 19.0667 11.3999 16.5867C11.4132 14.0533 13.4532 12 15.9999 12C18.5332 12 20.5866 14.0533 20.5866 16.5867C20.5732 19.0667 18.6266 21.08 16.1599 21.16Z"/>
    <path d="M11.8264 23.92C9.81307 25.2667 9.81307 27.48 11.8264 28.8134C14.1197 30.3467 17.8797 30.3467 20.1731 28.8134C22.1864 27.4667 22.1864 25.2534 20.1731 23.92C17.8931 22.3867 14.1331 22.3867 11.8264 23.92Z"/>
  </symbol>
  
  <!-- Charts icon -->
  <symbol id="icon-charts" viewBox="0 0 32 32" fill="currentColor">
    <path d="M29.3332 3.66669H2.6665C2.11984 3.66669 1.6665 3.21335 1.6665 2.66669C1.6665 2.12002 2.11984 1.66669 2.6665 1.66669H29.3332C29.8798 1.66669 30.3332 2.12002 30.3332 2.66669C30.3332 3.21335 29.8798 3.66669 29.3332 3.66669Z"/>
    <path d="M22.2265 29.7867C22.0532 30.1334 21.6932 30.3334 21.3332 30.3334C21.1865 30.3334 21.0265 30.2934 20.8932 30.2267L15.9999 27.7867L11.1065 30.2267C10.9732 30.2934 10.8132 30.3334 10.6665 30.3334C10.3065 30.3334 9.94652 30.1334 9.77319 29.7867C9.51986 29.28 9.71986 28.68 10.2265 28.44L14.9999 26.0534V22.6667H16.9999V26.0534L21.7732 28.44C22.2799 28.68 22.4799 29.28 22.2265 29.7867Z"/>
    <path d="M4 2.66669V18.8C4 21.3334 5.33333 22.6667 7.86667 22.6667H24.1333C26.6667 22.6667 28 21.3334 28 18.8V2.66669H4ZM22.64 11.44L18.44 14.9467C18.0533 15.2667 17.56 15.4 17.0933 15.32C16.6133 15.24 16.2 14.9467 15.9467 14.52L14.5467 12.1867L10.64 15.44C10.4533 15.6 10.2267 15.6667 10 15.6667C9.72 15.6667 9.42667 15.5467 9.22667 15.3067C8.86667 14.88 8.93333 14.2534 9.36 13.8934L13.56 10.3867C13.9467 10.0667 14.44 9.93335 14.9067 10.0134C15.3867 10.0934 15.8 10.3867 16.0533 10.8134L17.4533 13.1467L21.36 9.89335C21.7867 9.53335 22.4133 9.60002 22.7733 10.0267C23.12 10.4534 23.0667 11.08 22.64 11.44Z"/>
  </symbol>
  
  <!-- Setting icon -->
  <symbol id="icon-setting" viewBox="0 0 32 32" fill="currentColor" stroke="currentColor">
    <path d="M26.7998 12.2933C24.3865 12.2933 23.3998 10.5867 24.5998 8.49333C25.2932 7.28 24.8798 5.73333 23.6665 5.04L21.3598 3.72C20.3065 3.09333 18.9465 3.46666 18.3198 4.52L18.1732 4.77333C16.9732 6.86666 14.9998 6.86666 13.7865 4.77333L13.6398 4.52C13.0398 3.46666 11.6798 3.09333 10.6265 3.72L8.31984 5.04C7.1065 5.73333 6.69317 7.29333 7.3865 8.50666C8.59984 10.5867 7.61317 12.2933 5.19984 12.2933C3.81317 12.2933 2.6665 13.4267 2.6665 14.8267V17.1733C2.6665 18.56 3.79984 19.7067 5.19984 19.7067C7.61317 19.7067 8.59984 21.4133 7.3865 23.5067C6.69317 24.72 7.1065 26.2667 8.31984 26.96L10.6265 28.28C11.6798 28.9067 13.0398 28.5333 13.6665 27.48L13.8132 27.2267C15.0132 25.1333 16.9865 25.1333 18.1998 27.2267L18.3465 27.48C18.9732 28.5333 20.3332 28.9067 21.3865 28.28L23.6932 26.96C24.9065 26.2667 25.3198 24.7067 24.6265 23.5067C23.4132 21.4133 24.3998 19.7067 26.8132 19.7067C28.1998 19.7067 29.3465 18.5733 29.3465 17.1733V14.8267C29.3332 13.44 28.1998 12.2933 26.7998 12.2933ZM15.9998 20.3333C13.6132 20.3333 11.6665 18.3867 11.6665 16C11.6665 13.6133 13.6132 11.6667 15.9998 11.6667C18.3865 11.6667 20.3332 13.6133 20.3332 16C20.3332 18.3867 18.3865 20.3333 15.9998 20.3333Z"/>
  </symbol>
  
  <!-- Logout icon -->
  <symbol id="icon-logout" viewBox="0 0 32 32" fill="none" stroke="currentColor" stroke-width="2" stroke-linecap="round" stroke-linejoin="round">
    <path d="M11.8667 10.08C12.28 5.28001 14.7467 3.32001 20.1467 3.32001H20.32C26.28 3.32001 28.6667 5.70667 28.6667 11.6667V20.36C28.6667 26.32 26.28 28.7067 20.32 28.7067H20.1467C14.7867 28.7067 12.32 26.7733 11.88 22.0533"/>
    <path d="M20 16H4.82666"/>
    <path d="M7.80016 11.5334L3.3335 16.0001L7.80016 20.4667"/>
  </symbol>
</svg>

